<?xml version="1.0" encoding="utf-8"?>
<!-- Generator: Adobe Illustrator 24.0.2, SVG Export Plug-In . SVG Version: 6.00 Build 0)  -->
<svg version="1.1" id="Capa_1" xmlns="http://www.w3.org/2000/svg" xmlns:xlink="http://www.w3.org/1999/xlink" x="0px" y="0px"
	 viewBox="0 0 305.59 334.76" style="enable-background:new 0 0 305.59 334.76;" xml:space="preserve">
<style type="text/css">
	.st0{fill:#FBCEB4;}
	.st1{fill:#00719A;}
	.st2{fill:#FFFFFF;}
	.st3{fill:none;stroke:#006788;stroke-width:5;stroke-miterlimit:10;}
	.st4{opacity:0.25;fill:#00719A;}
	.st5{opacity:0.6;fill:#FFFFFF;}
</style>
<polygon class="st1" points="22.45,90.09 22.45,239.68 152,314.47 281.54,239.68 281.54,90.09 152,15.3 "/>
<path id="XMLID_16_" class="st5" d="M102.97,179.42c4.01-19.86,16.57-39.29,12.19-60.19c-1.78-8.49-6.48-16.22-12.68-22.28
	c-6.19-6.07-13.83-10.53-21.89-13.73c-4.24-1.68-8.68-3.04-13.25-3.16c0,0,15.07,6.04,23.62,15.38
	c8.09,8.84,11.24,15.39,12.71,24.71c0.75,4.75,0.76,9.4,0.28,13.99c-1.7,16.23-9.52,31.62-12.19,47.72
	c-2.11,12.75-0.57,26.16,4.81,37.91c5.38,11.75,14.65,21.76,26.16,27.64C105.75,229.71,98.12,203.48,102.97,179.42z"/>
<path id="XMLID_15_" class="st2" d="M95.12,181.9c5.54-19.49,19.59-37.87,16.85-59.06c-1.11-8.6-5.2-16.67-10.9-23.2
	c-5.7-6.53-12.97-11.58-20.76-15.39c-4.1-2.01-8.42-3.7-12.96-4.18c0,0,14.56,7.2,22.35,17.17c7.37,9.44,10.01,16.22,10.75,25.62
	c0.38,4.8,0.03,9.43-0.81,13.97c-2.96,16.05-11.95,30.78-15.87,46.63c-3.1,12.55-2.61,26.03,1.84,38.17
	c4.45,12.14,12.91,22.84,23.93,29.59C93.97,232.25,88.4,205.5,95.12,181.9z"/>
<path id="XMLID_14_" class="st5" d="M206.52,114.65c-15.12-1.41-23.71-5.17-35.25-2.7c-8.24,1.76-15.18,6.53-19,13.29
	c-2.28,4.03-3.45,8.77-3.12,14c0.3,4.73,1.52,9.35,2.37,14.01c3.22,17.74-1.16,33.68-12.36,47.72c-8.94,11.2-20.6,19.86-32.18,28.3
	c0,0,28.82-13.86,34.18-17.76c10.15-7.39,22.78-17.35,25.57-30.26c1.66-7.67-0.55-15.41-1.65-22.98c-1.07-7.31-3.3-16.09-0.91-23.29
	c1.08-3.26,5.03-6.55,7.97-8.33c3.73-2.27,12.47-1.51,16.84-1.37c45.91,1.46,52.09-6.13,67.52-28.12
	C256.47,97.17,238.98,117.69,206.52,114.65z"/>
<path id="XMLID_6_" class="st2" d="M214.96,122.57c-14.97-2.56-23.25-6.96-34.95-5.37c-8.35,1.13-15.64,5.36-19.96,11.81
	c-2.58,3.85-4.11,8.48-4.18,13.72c-0.07,4.74,0.8,9.44,1.29,14.15c1.86,17.93-3.72,33.49-15.96,46.64
	c-9.77,10.49-22.05,18.23-34.24,25.77c0,0,29.8-11.62,35.43-15.1c10.69-6.6,24.04-15.56,27.8-28.22c2.24-7.52,0.63-15.4,0.1-23.04
	c-0.51-7.37-2.06-16.3,0.86-23.3c1.32-3.17,5.52-6.15,8.58-7.7c3.89-1.98,12.55-0.55,16.89-0.08c45.67,4.95,52.4-2.15,69.46-22.9
	C266.1,108.95,247.09,128.07,214.96,122.57z"/>
<g>
	<g>
		<path class="st2" d="M136.15,173.52c1.39-1.06,2.7-2.05,4.01-3.04c0.98-0.74,1.97-1.47,2.95-2.21c0.7-0.52,1.63-0.4,2.13,0.26
			c0.51,0.68,0.37,1.64-0.33,2.16c-2.69,2.01-5.38,4.01-8.07,6.01c-0.14,0.11-0.32,0.25-0.48,0.25c-0.59,0.01-0.58,0.42-0.6,0.82
			c-0.04,0.89-0.06,1.78-0.12,2.67c-0.05,0.77-0.8,1.43-1.55,1.38c-0.89-0.06-1.51-0.7-1.47-1.54c0.11-1.95,0.23-3.89,0.34-5.84
			c0.07-1.29,0.13-2.57,0.18-3.86c0.04-1.07,0.52-1.72,1.37-1.85c0.95-0.14,1.79,0.69,1.71,1.65c-0.08,0.91-0.13,1.81-0.19,2.72
			C136.04,173.2,136.09,173.29,136.15,173.52z"/>
		<path class="st2" d="M138.99,157.62c0.95,0.14,1.87,0.26,2.78,0.41c1.15,0.18,2.29,0.39,3.43,0.58c0.86,0.14,1.38,0.82,1.27,1.66
			c-0.12,0.9-0.81,1.48-1.69,1.34c-1.77-0.27-3.54-0.58-5.3-0.86c-0.38-0.06-0.75-0.11-1.2-0.18c-0.15,0.55-0.32,1.08-0.44,1.62
			c-0.31,1.3-0.59,2.61-0.89,3.92c-0.09,0.39-0.16,0.78-0.28,1.16c-0.24,0.76-1.09,1.25-1.79,1.07c-0.8-0.21-1.32-0.95-1.14-1.77
			c0.29-1.37,0.65-2.73,0.97-4.1c0.17-0.73,0.34-1.45,0.47-2.18c0.01-0.08-0.25-0.27-0.41-0.31c-0.85-0.18-1.36-0.9-1.22-1.76
			c0.12-0.75,0.88-1.35,1.66-1.24c0.52,0.08,0.83,0.1,0.96-0.58c0.12-0.65,1.03-1.01,1.75-0.85c0.67,0.15,1.18,0.87,1.15,1.61
			C139.05,157.28,139.02,157.41,138.99,157.62z"/>
		<path class="st2" d="M124.52,162.35c0.66,0,1,0.55,1.41,0.99c2.1,2.28,4.21,4.56,6.31,6.85c0.62,0.68,0.55,1.63-0.13,2.2
			c-0.63,0.53-1.59,0.41-2.18-0.23c-1.72-1.88-3.45-3.74-5.17-5.61c-0.54-0.58-1.09-1.15-1.61-1.75c-0.48-0.56-0.52-1.14-0.18-1.74
			C123.3,162.49,123.8,162.25,124.52,162.35z"/>
		<path class="st2" d="M137.74,195.81c-0.72-0.09-1.06-0.57-1.28-1.18c-0.73-2.05-1.46-4.11-2.19-6.17
			c-0.37-1.04-0.75-2.08-1.11-3.13c-0.29-0.83,0.14-1.69,0.95-1.97c0.76-0.26,1.63,0.18,1.92,0.99c1.12,3.14,2.24,6.29,3.35,9.43
			c0.33,0.93-0.14,1.78-1.06,2C138.13,195.82,137.93,195.8,137.74,195.81z"/>
	</g>
</g>
<path class="st2" d="M120.29,208.3c-1.74-2.42-3.51-4.82-5.26-7.23c-0.1-0.14-0.13-0.34-0.14-0.51c-0.04-0.62,0.06-1.25-0.09-1.85
	c-0.4-1.59-0.83-3.18-1.39-4.74c-0.46-1.27-0.26-2.8-1.65-3.59c-0.01-0.72,0.04-1.32-0.04-1.91c-0.21-1.67-0.45-3.35-0.72-5.01
	c-0.2-1.23-0.48-2.46-0.74-3.76c0.14-0.32,0.44-0.79,0.55-1.29c0.11-0.48,0.04-0.99,0.04-1.49c0-2.1,0.02-4.19,0-6.29
	c-0.01-0.98-0.59-1.55-1.45-1.53c-0.81,0.02-1.27,0.5-1.28,1.44c-0.03,2.12-0.05,4.25-0.03,6.37c0.01,0.93,0.15,1.87,0.24,2.91
	c-0.72,0.31-0.97,0.96-0.83,1.83c0.37,2.38,0.71,4.76,1.02,7.15c0.11,0.83,0.25,1.6,1.05,1.9c0.06,0.79,0,1.37,0.15,1.91
	c0.67,2.42,1.38,4.83,2.12,7.23c0.3,0.97,0.85,1.92,1.34,2.79c1.35,2.4,3.15,4.62,4.79,6.89c0.51,0.71,1.38,0.93,2.04,0.59
	C120.67,209.78,120.82,209.03,120.29,208.3z M108.9,189.38c-0.4-2.65-0.77-5.31-1.14-7.97c-0.1-0.75,0.36-1.3,1.1-1.4
	c0.75-0.1,1.43,0.41,1.54,1.18c0.31,2.13,0.61,4.27,0.91,6.4c0.08,0.55,0.15,1.09,0.2,1.42c-0.02,0.99-0.51,1.53-1.24,1.52
	C109.41,190.54,109,190.05,108.9,189.38z M114.73,199.65c0-0.01,0-0.01,0-0.02c0,0,0,0,0-0.01c-0.02,0.79-0.3,1.21-0.97,1.31
	c-0.82,0.12-1.37-0.24-1.57-0.91c-0.6-1.97-1.17-3.95-1.74-5.93c-0.21-0.72-0.43-1.44-0.59-2.17c-0.14-0.65,0.25-1.03,0.96-1.2
	c0.68-0.16,1.31,0.01,1.48,0.58c0.85,2.77,1.63,5.55,2.43,8.33c0-0.03,0.01-0.04,0.01-0.07
	C114.73,199.6,114.73,199.63,114.73,199.65C114.73,199.68,114.73,199.7,114.73,199.65z"/>
<g>
	<g>
		<path class="st2" d="M120.89,185.75c0.06,0.11,0.11,0.21,0.17,0.32c1.47,2.69,2.94,5.39,4.41,8.08c1,1.83,1.98,3.66,2.97,5.49
			c0.54,1.01,0.32,1.9-0.6,2.38c-0.94,0.51-1.86,0.21-2.39-0.78c-1.43-2.64-2.84-5.29-4.28-7.92c-1.96-3.61-3.93-7.22-5.91-10.82
			c-0.33-0.61-0.71-1.19-1.04-1.8c-0.37-0.69-0.2-1.52,0.4-2.07c0.54-0.5,1.39-0.59,2.01-0.17c0.23,0.16,0.43,0.4,0.57,0.65
			c1.18,2.12,2.34,4.25,3.51,6.38c0.05,0.09,0.1,0.18,0.15,0.28C120.88,185.75,120.89,185.75,120.89,185.75z"/>
		<path class="st2" d="M126.47,187.48c-0.97,0.12-1.49-0.39-1.86-1.19c-1.09-2.37-2.21-4.73-3.32-7.09
			c-0.31-0.66-0.58-1.34-0.94-1.96c-0.39-0.67-0.08-1.68,0.63-2.06c0.79-0.43,1.71-0.16,2.12,0.65c0.55,1.1,1.05,2.22,1.57,3.33
			c0.94,1.99,1.87,3.97,2.82,5.96c0.42,0.89,0.24,1.53-0.59,2.21c0.37,0.09,0.87,0.08,1.21,0.32c0.36,0.24,0.62,0.68,0.82,1.09
			c0.83,1.71,1.62,3.44,2.43,5.16c0.58,1.24,1.17,2.47,1.74,3.71c0.33,0.72,0.17,1.43-0.36,1.89c-0.53,0.46-1.28,0.53-1.87,0.13
			c-0.19-0.13-0.36-0.34-0.46-0.54c-0.89-1.85-1.77-3.72-2.65-5.58c-0.58-1.24-1.16-2.47-1.74-3.71c-0.44-0.93-0.37-1.33,0.33-2.09
			C126.39,187.66,126.41,187.59,126.47,187.48z"/>
	</g>
</g>
<g>
	<g>
		<path class="st2" d="M180.26,178.37h14.52c0.58,0,1.05,0.47,1.05,1.05v2.28c0,0.58-0.47,1.05-1.05,1.05h-3.44
			c-0.58,0-1.05,0.47-1.05,1.05v46.02c0,0.58-0.47,1.05-1.05,1.05h-3.44c-0.58,0-1.05-0.47-1.05-1.05V183.8
			c0-0.58-0.47-1.05-1.05-1.05h-3.44c-0.58,0-1.05-0.47-1.05-1.05v-2.28C179.21,178.84,179.69,178.37,180.26,178.37z"/>
		<path class="st2" d="M209.22,178.37h1.61c4.15,0,7.51,3.36,7.51,7.51v37.49c0,4.15-3.36,7.51-7.51,7.51h-1.61
			c-4.15,0-7.51-3.36-7.51-7.51v-37.49C201.72,181.73,205.08,178.37,209.22,178.37z M212.8,223.79v-38.34c0-1.49-1.21-2.7-2.7-2.7
			h-0.14c-1.49,0-2.7,1.21-2.7,2.7v38.34c0,1.49,1.21,2.7,2.7,2.7h0.14C211.59,226.5,212.8,225.29,212.8,223.79z"/>
		<path class="st2" d="M233.38,178.37h1.61c4.15,0,7.51,3.36,7.51,7.51v37.49c0,4.15-3.36,7.51-7.51,7.51h-1.61
			c-4.15,0-7.51-3.36-7.51-7.51v-37.49C225.87,181.73,229.23,178.37,233.38,178.37z M236.95,223.79v-38.34c0-1.49-1.21-2.7-2.7-2.7
			h-0.14c-1.49,0-2.7,1.21-2.7,2.7v38.34c0,1.49,1.21,2.7,2.7,2.7h0.14C235.74,226.5,236.95,225.29,236.95,223.79z"/>
		<path class="st2" d="M256.61,226.5h3.44c0.58,0,1.05,0.47,1.05,1.05v2.28c0,0.58-0.47,1.05-1.05,1.05h-8.98
			c-0.58,0-1.05-0.47-1.05-1.05v-50.41c0-0.58,0.47-1.05,1.05-1.05h3.44c0.58,0,1.05,0.47,1.05,1.05v46.03
			C255.56,226.03,256.03,226.5,256.61,226.5z"/>
	</g>
</g>
<g>
	<g>
		<path class="st2" d="M120.65,145.62c0-1.55,0-3.11,0-4.66c0-0.75,0.54-1.27,1.31-1.27c0.75,0,1.29,0.54,1.29,1.28
			c0,2.84,0,5.68,0,8.52c0,0.23,0.05,0.41,0.2,0.58c1.07,1.31,2.14,2.63,3.21,3.94c0.59,0.73,1.19,1.45,1.77,2.18
			c0.36,0.45,0.42,0.96,0.15,1.48c-0.26,0.5-0.7,0.71-1.23,0.69c-0.53-0.02-0.86-0.36-1.17-0.75c-1.02-1.28-2.06-2.55-3.09-3.82
			c-0.72-0.88-1.45-1.76-2.13-2.67c-0.17-0.22-0.27-0.56-0.28-0.84C120.64,148.73,120.65,147.17,120.65,145.62z"/>
		<path class="st2" d="M115.71,147.88c0-0.64,0.48-1.12,1.08-1.26c0.55-0.12,1.22,0.19,1.43,0.73c0.21,0.55,0.33,1.13,0.48,1.7
			c0.62,2.29,1.23,4.59,1.85,6.88c0.26,0.96-0.49,1.75-1.35,1.71c-0.52-0.03-1.03-0.42-1.16-0.92c-0.75-2.81-1.5-5.62-2.25-8.43
			C115.74,148.16,115.73,148.02,115.71,147.88z"/>
	</g>
</g>
</svg>
